# xmcd CD database file
#
# Track frame offsets:
#	150
#	46113
#	78653
#	108399
#	137471
#	175736
#
# Disc length: 2873 seconds
#
# Revision: 0
# Processed by: cddbd v1.5.1PL0 Copyright (c) Steve Scherf et al.
# Submitted via: CDex 1.51
#
DISCID=420b3706
DTITLE=Willis Jackson and Von Freeman - Lockin' Horns: Willis and Von
DYEAR=2000
DGENRE=Jazz
TTITLE0=Pow!
TTITLE1=The Man I Love
TTITLE2=Troubled Times
TTITLE3=Summertime
TTITLE4=The Shadow Of Your Smile
TTITLE5=Willis And Von
EXTD=YEAR: 2000
EXTT0=
EXTT1=
EXTT2=
EXTT3=
EXTT4=
EXTT5=
PLAYORDER=
